HIERARCHY
ROOT Hips
{
	OFFSET 0.00000 0.00000 0.00000
	CHANNELS 6 Xposition Yposition Zposition Yrotation Zrotation Xrotation 
	JOINT Lumbar
	{
		OFFSET 0 0 0
		CHANNELS 3 Zrotation Xrotation Yrotation
		JOINT Neck
		{
			OFFSET 0.00 0.2701 0.00
			CHANNELS 3 Zrotation Xrotation Yrotation
			End Site
			{
				OFFSET 0.00 0.1379 0.00
			}
		}
		JOINT RightShoulder
		{
			OFFSET 0.0119 0.2289 0.1181
			CHANNELS 3 Zrotation Xrotation Yrotation
			JOINT RightElbow
			{
				OFFSET 0.00 -0.1475 0.00
				CHANNELS 2 Zrotation Yrotation
				JOINT RightWrist
				{
					OFFSET 0.00 -0.1605 0.00
					CHANNELS 2 Zrotation Xrotation
					End Site
					{
						OFFSET 0.0040 -0.1068 0.0006
					}
				}
			}
		}
		JOINT LeftShoulder
		{
			OFFSET 0.0119 0.2289 -0.1181
			CHANNELS 3 Zrotation Xrotation Yrotation
			JOINT LeftElbow
			{
				OFFSET 0.00 -0.1475 0.00
				CHANNELS 2 Zrotation Yrotation
				JOINT LeftWrist
				{
					OFFSET 0.00 -0.1605 0.00
					CHANNELS 2 Zrotation Xrotation
					End Site
					{
						OFFSET 0.0040 -0.1068 -0.0006
					}
				}
			}
		}
	}
	JOINT RightHip
	{
		OFFSET 0.0316 -0.0424 0.0458
		CHANNELS 3 Zrotation Xrotation Yrotation
		JOINT RightKnee
		{
			OFFSET 0.00 -0.2438 0.00
			CHANNELS 1 Zrotation
			JOINT RightAnkle
			{
				OFFSET 0.00 -0.2449 0.00
				CHANNELS 3 Zrotation Xrotation Yrotation
				End Site
				{
					OFFSET 0.1237 -0.0542 0.0051
				}
			}
		}
	}
	JOINT LeftHip
	{
		OFFSET 0.0316 -0.0424 -0.0458
		CHANNELS 3 Zrotation Xrotation Yrotation
		JOINT LeftKnee
		{
			OFFSET 0.00 -0.2438 0.00
			CHANNELS 1 Zrotation
			JOINT LeftAnkle
			{
				OFFSET 0.00 -0.2449 0.00
				CHANNELS 3 Zrotation Xrotation Yrotation
				End Site
				{
					OFFSET 0.1237 -0.0542 -0.0051
				}
			}
		}
	}
}
MOTION
Frames: 22
Frame Time: 0.02
6e-05 -3e-05 4e-05 23.98822 -31.12949 -5.39186 48.70411 2.76038 -4.75105 4.72628 -0.85278 -0.92484 -18.59107 -8.91593 4.44021 33.77602 55.55867 -3.48345 -4.99809 -23.31012 15.08664 -17.86491 49.74249 -67.96893 -1.47122 5.1365 44.69545 -0.12735 -7.29449 -19.42125 -6.11705 -2.71356 -3.5155 48.37711 4.202 3.78996 -24.58817 -6.30251 1.80189 3.10123
0.0001 -3e-05 -4e-05 23.98339 -31.1287 -5.3957 48.70635 2.75672 -4.74305 4.72303 -0.85565 -0.92489 -18.57213 -8.56692 3.34335 33.784 62.65173 -1.72063 -3.73423 -23.39925 14.68557 -16.99883 49.73617 -71.29217 -0.10047 4.41843 44.68551 -0.16847 -7.52874 -19.42005 -6.11354 -2.68969 -3.50396 48.37138 4.22182 3.88916 -24.58832 -6.3034 1.79262 3.09642
0.00014 -2e-05 -0.00012 23.97854 -31.12791 -5.39953 48.7086 2.75307 -4.73503 4.71977 -0.8585 -0.92494 -18.55328 -8.21896 2.24987 33.79194 69.72294 0.03675 -2.47426 -23.48825 14.28466 -16.13319 49.72988 -74.61365 1.26898 3.70119 44.67557 -0.20953 -7.76264 -19.41885 -6.11004 -2.66585 -3.49244 48.36564 4.24163 3.98827 -24.58847 -6.30428 1.78337 3.09162
0.00018 -2e-05 -0.00019 23.97371 -31.12712 -5.40337 48.71083 2.74943 -4.72705 4.71652 -0.86136 -0.92499 -18.53441 -7.87102 1.15639 33.79989 76.79417 1.79415 -1.21428 -23.57715 13.88457 -15.26925 49.72358 -77.92866 2.63619 2.98501 44.66566 -0.25054 -7.99624 -19.41766 -6.10654 -2.64205 -3.48093 48.35992 4.2614 4.08721 -24.58862 -6.30517 1.77413 3.08682
0.00022 -1e-05 -0.00027 23.96893 -31.12634 -5.40722 48.71303 2.74577 -4.71909 4.71331 -0.86424 -0.92504 -18.51543 -7.52202 0.05953 33.80788 83.88722 3.55696 0.04959 -23.66609 13.48494 -14.40619 49.71724 -81.24054 4.00302 2.26878 44.65577 -0.29158 -8.23003 -19.41647 -6.10303 -2.61822 -3.46942 48.35424 4.28116 4.18613 -24.58877 -6.30606 1.76488 3.08202
0.00026 -0 -0.00035 23.96392 -31.12552 -5.41101 48.7154 2.74214 -4.71095 4.70992 -0.86703 -0.9251 -18.49686 -7.17628 -1.02679 33.81571 90.91207 5.30283 1.30129 -23.7552 13.08153 -13.53545 49.71108 -84.58095 5.37754 1.54963 44.64572 -0.33266 -8.4641 -19.41525 -6.09953 -2.59437 -3.45788 48.34836 4.30105 4.28563 -24.58892 -6.30694 1.75564 3.0772
0.0003 0 -0.00043 23.95937 -31.12478 -5.41491 48.71743 2.73847 -4.70318 4.70689 -0.87 -0.92514 -18.47749 -6.82437 -2.13307 33.82386 98.06614 7.08081 2.57604 -23.84394 12.68558 -12.67988 49.70455 -87.86478 6.7366 0.83643 44.63599 -0.37363 -8.69742 -19.41409 -6.09603 -2.57057 -3.4464 48.34288 4.32067 4.38391 -24.58908 -6.30784 1.74639 3.07241
0.00034 1e-05 -0.0005 23.95441 -31.12397 -5.41872 48.71976 2.73483 -4.69509 4.70354 -0.87281 -0.9252 -18.45885 -6.47813 -3.22102 33.83172 105.10154 8.8293 3.82962 -23.93291 12.28383 -11.81258 49.69836 -91.19257 8.10711 0.11907 44.62598 -0.41468 -8.9313 -19.41288 -6.09253 -2.54675 -3.43488 48.33705 4.34052 4.48322 -24.58922 -6.30872 1.73715 3.06761
0.00038 2e-05 -0.00058 23.94888 -31.12305 -5.42241 48.7225 2.73125 -4.68652 4.69974 -0.8754 -0.92527 -18.44114 -6.13876 -4.28671 33.83921 111.99287 10.54198 5.05751 -24.02265 11.87032 -10.92119 49.69261 -94.60964 9.50385 -0.60921 44.61555 -0.45596 -9.16657 -19.4116 -6.08901 -2.52282 -3.42326 48.33072 4.36075 4.58421 -24.58935 -6.30957 1.72788 3.06277
0.00041 2e-05 -0.00066 23.94642 -31.1227 -5.42673 48.72303 2.72738 -4.68043 4.69836 -0.87919 -0.92524 -18.41821 -5.75968 -5.48093 33.84878 119.71633 12.46147 6.43381 -24.10947 11.51041 -10.13906 49.68441 -97.62015 10.78657 -1.29224 44.60734 -0.49629 -9.39598 -19.41069 -6.08557 -2.49927 -3.41207 48.32704 4.3791 4.67682 -24.58958 -6.31057 1.71869 3.05807
0.00046 3e-05 -0.00074 23.93763 -31.12117 -5.42975 48.72811 2.72411 -4.66928 4.69199 -0.88047 -0.92544 -18.40618 -5.46453 -6.40361 33.85397 125.68156 13.94398 7.49653 -24.20145 11.04654 -9.14547 49.68131 -101.41879 12.28584 -2.05929 44.59458 -0.53839 -9.63631 -19.40903 -6.08197 -2.47504 -3.40004 48.31792 4.40123 4.78627 -24.5896 -6.31126 1.70937 3.05311
0.00053 4e-05 -0.00082 23.90998 -31.1161 -5.42889 48.74679 2.72239 -4.64288 4.67085 -0.87456 -0.92633 -18.42537 -5.40097 -6.57573 33.84678 126.7874 14.21877 7.69252 -24.31617 10.21732 -7.40488 49.69286 -107.9893 14.58805 -3.15579 44.56794 -0.58739 -9.91895 -19.40507 -6.07773 -2.44781 -3.38502 48.29247 4.43538 4.94946 -24.58894 -6.31105 1.69927 3.04716
0.00061 6e-05 -0.0009 23.87625 -31.1099 -5.42676 48.76984 2.72127 -4.61165 4.64491 -0.86618 -0.92746 -18.45527 -5.42178 -6.47516 33.8352 126.12735 14.05466 7.57357 -24.43461 9.2973 -5.48032 49.70939 -115.24697 17.07201 -4.31977 44.53696 -0.63779 -10.21031 -19.4004 -6.07335 -2.42008 -3.36926 48.26182 4.47301 5.1282 -24.58807 -6.31052 1.68911 3.04099
0.00069 8e-05 -0.00097 23.8463 -31.10441 -5.42541 48.79015 2.7199 -4.58352 4.62187 -0.85915 -0.92846 -18.47941 -5.4027 -6.50424 33.82589 126.30683 14.09922 7.60438 -24.54562 8.47263 -3.75204 49.72317 -121.78148 19.33277 -5.38649 44.50887 -0.68619 -10.48952 -19.39619 -6.06916 -2.39331 -3.35429 48.23447 4.50794 5.29485 -24.58734 -6.31015 1.67923 3.03509
0.00078 0.0001 -0.00106 23.81209 -31.09811 -5.42322 48.81362 2.71845 -4.55158 4.59579 -0.85117 -0.92956 -18.50731 -5.38894 -6.51288 33.81558 126.35471 14.11106 7.61158 -24.68041 7.42444 -1.55813 49.739 -130.01659 22.17532 -6.72863 44.47695 -0.74032 -10.80306 -19.3914 -6.06447 -2.36344 -3.33744 48.20318 4.54757 5.4826 -24.58641 -6.30971 1.66828 3.02847
0.00084 0.00011 -0.00113 23.78526 -31.0932 -5.42246 48.83158 2.71732 -4.52639 4.57488 -0.84456 -0.93051 -18.52996 -5.38584 -6.49411 33.80609 126.22271 14.07819 7.58701 -24.76711 6.81401 -0.27742 49.75177 -134.91684 23.86441 -7.52045 44.45195 -0.7829 -11.04747 -19.38764 -6.06077 -2.33989 -3.32431 48.17883 4.57829 5.63028 -24.58586 -6.30935 1.65953 3.0233
0.00083 0.00011 -0.00118 23.78075 -31.0925 -5.42604 48.83312 2.71689 -4.52137 4.56962 -0.84255 -0.93098 -18.53456 -5.37548 -6.51602 33.80088 126.34604 14.10857 7.6086 -24.71509 7.48957 -1.67761 49.7547 -130.05208 22.19102 -6.71204 44.44737 -0.79278 -11.0961 -19.38697 -6.05991 -2.33421 -3.32177 48.17522 4.58319 5.66186 -24.58643 -6.30936 1.65692 3.02222
0.0008 0.0001 -0.00123 23.7838 -31.0932 -5.43108 48.829 2.71677 -4.5232 4.56968 -0.8419 -0.93129 -18.5333 -5.37543 -6.51259 33.79578 126.29752 14.0961 7.59995 -24.6154 8.59891 -3.98267 49.75441 -121.87794 19.3748 -5.35909 44.44985 -0.79108 -11.07541 -19.38736 -6.06003 -2.33484 -3.32297 48.17869 4.57908 5.65301 -24.58739 -6.30947 1.65649 3.02259
0.00078 9e-05 -0.00127 23.7831 -31.09323 -5.43537 48.82761 2.71652 -4.52175 4.56717 -0.84061 -0.93168 -18.53578 -5.38172 -6.48573 33.79094 126.10904 14.04919 7.56628 -24.54089 9.47316 -5.79766 49.75571 -115.47555 17.16954 -4.29792 44.44895 -0.79498 -11.08815 -19.38723 -6.05968 -2.33238 -3.32236 48.17877 4.57928 5.66354 -24.58815 -6.30953 1.65505 3.02228
0.00076 8e-05 -0.00132 23.78354 -31.09343 -5.43994 48.82578 2.71621 -4.52105 4.56515 -0.83967 -0.93205 -18.53563 -5.3463 -6.58862 33.78752 126.74911 14.20761 7.6797 -24.45196 10.50305 -7.93603 49.75663 -107.97398 14.58601 -3.05346 44.4487 -0.79748 -11.09281 -19.38725 -6.05946 -2.33089 -3.32218 48.17952 4.57859 5.66978 -24.58897 -6.30959 1.65377 3.02211
0.00073 8e-05 -0.00137 23.78347 -31.09352 -5.44434 48.82336 2.71615 -4.52023 4.56345 -0.83792 -0.93243 -18.53751 -5.39674 -6.42915 33.77761 125.68375 13.94262 7.49064 -24.38132 11.31477 -9.62196 49.75752 -101.95778 12.51398 -2.05881 44.44871 -0.80018 -11.09803 -19.38721 -6.05918 -2.32885 -3.322 48.18049 4.5777 5.6759 -24.58977 -6.30967 1.65259 3.02194
0.0007 7e-05 -0.00143 23.77998 -31.09396 -5.44766 48.82148 2.71623 -4.519 4.56142 -0.83703 -0.93281 -18.56155 -5.70215 -5.46751 33.77936 119.62704 12.4435 6.41495 -24.37598 11.40282 -9.80539 49.75923 -100.92959 12.15612 -1.90199 44.44859 -0.80573 -11.11867 -19.38662 -6.05856 -2.32382 -3.32093 48.18137 4.57715 5.68497 -24.5904 -6.3097 1.65198 3.02182
